<mxfile host="app.diagrams.net" modified="2023-08-08T08:58:02.562Z" agent="Mozilla/5.0 (Macintosh; Intel Mac OS X 10_15_7) AppleWebKit/537.36 (KHTML, like Gecko) Chrome/115.0.0.0 Safari/537.36" version="21.6.6" etag="K4VEyPv5Lo0qDtTInXSr" type="github">
  <diagram name="Page-1" id="6e13ZW1K2UMtWM8LcCM6">
    <mxGraphModel>
      <root>
        <mxCell id="0" />
        <mxCell id="1" parent="0" />
      </root>
    </mxGraphModel>
  </diagram>
</mxfile>
